<svg width="18" height="16" viewBox="0 0 18 16" fill="none" xmlns="http://www.w3.org/2000/svg">
    <path fill-rule="evenodd" clip-rule="evenodd" d="M0 1.28571C0 0.944722 0.135459 0.617695 0.376577 0.376577C0.617695 0.135459 0.944722 0 1.28571 0H16.7143C17.0553 0 17.3823 0.135459 17.6234 0.376577C17.8645 0.617695 18 0.944722 18 1.28571C18 1.62671 17.8645 1.95373 17.6234 2.19485C17.3823 2.43597 17.0553 2.57143 16.7143 2.57143H1.28571C0.944722 2.57143 0.617695 2.43597 0.376577 2.19485C0.135459 1.95373 0 1.62671 0 1.28571Z" fill="#0C5BF0" />
    <path fill-rule="evenodd" clip-rule="evenodd" d="M0 7.71427C0 7.37328 0.135459 7.04625 0.376577 6.80514C0.617695 6.56402 0.944722 6.42856 1.28571 6.42856H16.7143C17.0553 6.42856 17.3823 6.56402 17.6234 6.80514C17.8645 7.04625 18 7.37328 18 7.71427C18 8.05527 17.8645 8.38229 17.6234 8.62341C17.3823 8.86453 17.0553 8.99999 16.7143 8.99999H1.28571C0.944722 8.99999 0.617695 8.86453 0.376577 8.62341C0.135459 8.38229 0 8.05527 0 7.71427Z" fill="#0C5BF0" />
    <path fill-rule="evenodd" clip-rule="evenodd" d="M0 14.1429C0 13.8019 0.135459 13.4748 0.376577 13.2337C0.617695 12.9926 0.944722 12.8571 1.28571 12.8571H16.7143C17.0553 12.8571 17.3823 12.9926 17.6234 13.2337C17.8645 13.4748 18 13.8019 18 14.1429C18 14.4839 17.8645 14.8109 17.6234 15.052C17.3823 15.2931 17.0553 15.4286 16.7143 15.4286H1.28571C0.944722 15.4286 0.617695 15.2931 0.376577 15.052C0.135459 14.8109 0 14.4839 0 14.1429Z" fill="#0C5BF0" />
</svg>
    