<svg width="24" height="24" viewBox="0 0 24 24" fill="none" xmlns="http://www.w3.org/2000/svg">
    <path fill-rule="evenodd" clip-rule="evenodd" d="M17.5 20C18.163 20 18.7989 19.7366 19.2678 19.2678C19.7366 18.7989 20 18.163 20 17.5C20 16.837 19.7366 16.2011 19.2678 15.7322C18.7989 15.2634 18.163 15 17.5 15C16.837 15 16.2011 15.2634 15.7322 15.7322C15.2634 16.2011 15 16.837 15 17.5C15 18.163 15.2634 18.7989 15.7322 19.2678C16.2011 19.7366 16.837 20 17.5 20ZM17.5 21C18.4283 21 19.3185 20.6313 19.9749 19.9749C20.6313 19.3185 21 18.4283 21 17.5C21 16.5717 20.6313 15.6815 19.9749 15.0251C19.3185 14.3687 18.4283 14 17.5 14C16.5717 14 15.6815 14.3687 15.0251 15.0251C14.3687 15.6815 14 16.5717 14 17.5C14 18.4283 14.3687 19.3185 15.0251 19.9749C15.6815 20.6313 16.5717 21 17.5 21Z" fill="white"/>
    <path fill-rule="evenodd" clip-rule="evenodd" d="M17.5 15.75C17.6326 15.75 17.7598 15.8027 17.8536 15.8964C17.9473 15.9902 18 16.1174 18 16.25V17.293L18.3535 17.6465C18.4446 17.7408 18.495 17.8671 18.4938 17.9982C18.4927 18.1293 18.4401 18.2547 18.3474 18.3474C18.2547 18.4401 18.1293 18.4927 17.9982 18.4938C17.8671 18.495 17.7408 18.4446 17.6465 18.3535L17 17.707V16.25C17 16.1174 17.0527 15.9902 17.1464 15.8964C17.2402 15.8027 17.3674 15.75 17.5 15.75Z" fill="white"/>
    <path fill-rule="evenodd" clip-rule="evenodd" d="M7 11.5H6V12.5H7V11.5ZM6 10.5C5.73478 10.5 5.48043 10.6054 5.29289 10.7929C5.10536 10.9804 5 11.2348 5 11.5V12.5C5 12.7652 5.10536 13.0196 5.29289 13.2071C5.48043 13.3946 5.73478 13.5 6 13.5H7C7.26522 13.5 7.51957 13.3946 7.70711 13.2071C7.89464 13.0196 8 12.7652 8 12.5V11.5C8 11.2348 7.89464 10.9804 7.70711 10.7929C7.51957 10.6054 7.26522 10.5 7 10.5H6Z" fill="white"/>
    <path fill-rule="evenodd" clip-rule="evenodd" d="M11 11.5H10V12.5H11V11.5ZM10 10.5C9.73478 10.5 9.48043 10.6054 9.29289 10.7929C9.10536 10.9804 9 11.2348 9 11.5V12.5C9 12.7652 9.10536 13.0196 9.29289 13.2071C9.48043 13.3946 9.73478 13.5 10 13.5H11C11.2652 13.5 11.5196 13.3946 11.7071 13.2071C11.8946 13.0196 12 12.7652 12 12.5V11.5C12 11.2348 11.8946 10.9804 11.7071 10.7929C11.5196 10.6054 11.2652 10.5 11 10.5H10Z" fill="white"/>
    <path fill-rule="evenodd" clip-rule="evenodd" d="M15 11.5H14V12.5H15V11.5ZM14 10.5C13.7348 10.5 13.4804 10.6054 13.2929 10.7929C13.1054 10.9804 13 11.2348 13 11.5V12.5C13 12.7652 13.1054 13.0196 13.2929 13.2071C13.4804 13.3946 13.7348 13.5 14 13.5H15C15.2652 13.5 15.5196 13.3946 15.7071 13.2071C15.8946 13.0196 16 12.7652 16 12.5V11.5C16 11.2348 15.8946 10.9804 15.7071 10.7929C15.5196 10.6054 15.2652 10.5 15 10.5H14Z" fill="white"/>
    <path fill-rule="evenodd" clip-rule="evenodd" d="M7 15.5H6V16.5H7V15.5ZM6 14.5C5.73478 14.5 5.48043 14.6054 5.29289 14.7929C5.10536 14.9804 5 15.2348 5 15.5V16.5C5 16.7652 5.10536 17.0196 5.29289 17.2071C5.48043 17.3946 5.73478 17.5 6 17.5H7C7.26522 17.5 7.51957 17.3946 7.70711 17.2071C7.89464 17.0196 8 16.7652 8 16.5V15.5C8 15.2348 7.89464 14.9804 7.70711 14.7929C7.51957 14.6054 7.26522 14.5 7 14.5H6Z" fill="white"/>
    <path fill-rule="evenodd" clip-rule="evenodd" d="M11 15.5H10V16.5H11V15.5ZM10 14.5C9.73478 14.5 9.48043 14.6054 9.29289 14.7929C9.10536 14.9804 9 15.2348 9 15.5V16.5C9 16.7652 9.10536 17.0196 9.29289 17.2071C9.48043 17.3946 9.73478 17.5 10 17.5H11C11.2652 17.5 11.5196 17.3946 11.7071 17.2071C11.8946 17.0196 12 16.7652 12 16.5V15.5C12 15.2348 11.8946 14.9804 11.7071 14.7929C11.5196 14.6054 11.2652 14.5 11 14.5H10Z" fill="white"/>
    <path fill-rule="evenodd" clip-rule="evenodd" d="M4 6C4 5.86739 4.05268 5.74021 4.14645 5.64645C4.24021 5.55268 4.36739 5.5 4.5 5.5H7V4.5H4.5C4.10218 4.5 3.72064 4.65804 3.43934 4.93934C3.15804 5.22064 3 5.60218 3 6V18C3 18.3978 3.15804 18.7794 3.43934 19.0607C3.72064 19.342 4.10218 19.5 4.5 19.5H14.6275C14.4143 19.1946 14.2514 18.857 14.145 18.5H4.5C4.36739 18.5 4.24021 18.4473 4.14645 18.3536C4.05268 18.2598 4 18.1326 4 18V6ZM17 14.035C17.3316 13.9876 17.6684 13.9876 18 14.035V6C18 5.60218 17.842 5.22064 17.5607 4.93934C17.2794 4.65804 16.8978 4.5 16.5 4.5H15V5.5H16.5C16.6326 5.5 16.7598 5.55268 16.8536 5.64645C16.9473 5.74021 17 5.86739 17 6V14.035ZM8 5.5H13.2815V4.5H8V5.5Z" fill="white"/>
    <path fill-rule="evenodd" clip-rule="evenodd" d="M14 4.5H8V6C8 6.13261 7.94732 6.25979 7.85355 6.35355C7.75979 6.44732 7.63261 6.5 7.5 6.5C7.36739 6.5 7.24021 6.44732 7.14645 6.35355C7.05268 6.25979 7 6.13261 7 6V4.5H4.5C4.23478 4.5 3.98043 4.60536 3.79289 4.79289C3.60536 4.98043 3.5 5.23478 3.5 5.5V8C3.5 8.26522 3.60536 8.51957 3.79289 8.70711C3.98043 8.89464 4.23478 9 4.5 9H16.5C16.7652 9 17.0196 8.89464 17.2071 8.70711C17.3946 8.51957 17.5 8.26522 17.5 8V5.5C17.5 5.23478 17.3946 4.98043 17.2071 4.79289C17.0196 4.60536 16.7652 4.5 16.5 4.5H15V6C15 6.13261 14.9473 6.25979 14.8536 6.35355C14.7598 6.44732 14.6326 6.5 14.5 6.5C14.3674 6.5 14.2402 6.44732 14.1464 6.35355C14.0527 6.25979 14 6.13261 14 6V4.5Z" fill="white"/>
    <path fill-rule="evenodd" clip-rule="evenodd" d="M18 9H4V8H18V9Z" fill="white"/>
    <path d="M6 3.5C6 3.36739 6.05268 3.24021 6.14645 3.14645C6.24021 3.05268 6.36739 3 6.5 3C6.63261 3 6.75979 3.05268 6.85355 3.14645C6.94732 3.24021 7 3.36739 7 3.5V5.5C7 5.63261 6.94732 5.75979 6.85355 5.85355C6.75979 5.94732 6.63261 6 6.5 6C6.36739 6 6.24021 5.94732 6.14645 5.85355C6.05268 5.75979 6 5.63261 6 5.5V3.5Z" fill="white"/>
    <path d="M13 3.5C13 3.36739 13.0527 3.24021 13.1464 3.14645C13.2402 3.05268 13.3674 3 13.5 3C13.6326 3 13.7598 3.05268 13.8536 3.14645C13.9473 3.24021 14 3.36739 14 3.5V5.5C14 5.63261 13.9473 5.75979 13.8536 5.85355C13.7598 5.94732 13.6326 6 13.5 6C13.3674 6 13.2402 5.94732 13.1464 5.85355C13.0527 5.75979 13 5.63261 13 5.5V3.5Z" fill="white"/>
</svg>