<svg width="23" height="23" viewBox="0 0 23 23" fill="none" xmlns="http://www.w3.org/2000/svg">
    <path d="M11.4426 11.6789C16.6048 11.6789 20.8087 10.5672 21.0834 9.16166V5.48805C20.8087 6.89361 16.6112 8.00528 11.4426 8.00528C8.92452 8.05394 6.4134 7.72444 3.99314 7.02778V5.75C6.41406 6.44235 8.92516 6.76754 11.4426 6.71472C16.6112 6.7275 20.7768 5.61583 21.0834 4.22305C20.9556 2.04444 15.0267 1.45667 11.5001 1.45667C7.97342 1.45667 1.91675 2.05083 1.91675 4.28694V18.7131C1.91675 20.9428 7.94147 21.5433 11.5001 21.5433C15.0587 21.5433 21.0834 20.9492 21.0834 18.7131V15.3908C20.8087 16.79 16.6112 17.8889 11.4426 17.8889C8.92612 17.9479 6.41504 17.6292 3.99314 16.9433V15.6656C6.41504 16.3514 8.92612 16.6702 11.4426 16.6111C16.6112 16.6111 20.8087 15.5122 21.0834 14.1131V10.4394C20.8087 11.845 16.6112 12.9567 11.4426 12.9567C8.92516 13.0095 6.41406 12.6843 3.99314 11.9919V10.7142C6.41406 11.4065 8.92516 11.7317 11.4426 11.6789Z" fill="white" />
</svg>
    