<svg width="24" height="24" viewBox="0 0 24 24" fill="none" xmlns="http://www.w3.org/2000/svg">
    <path d="M18.5 20C18.5 20.1326 18.4473 20.2598 18.3536 20.3536C18.2598 20.4473 18.1326 20.5 18 20.5H13C13 21.037 12.88 21.545 12.663 22H18C18.5304 22 19.0391 21.7893 19.4142 21.4142C19.7893 21.0391 20 20.5304 20 20V9.828C19.9999 9.29761 19.7891 8.78899 19.414 8.414L13.585 2.586C13.5695 2.57163 13.5532 2.55827 13.536 2.546C13.5236 2.53645 13.5116 2.52644 13.5 2.516C13.4312 2.45107 13.358 2.39093 13.281 2.336C13.2554 2.31948 13.2287 2.30478 13.201 2.292L13.153 2.268L13.103 2.239C13.049 2.208 12.994 2.176 12.937 2.152C12.7379 2.07246 12.5271 2.02585 12.313 2.014C12.293 2.013 12.273 2.01 12.254 2.007C12.2269 2.00281 12.1995 2.00047 12.172 2H6C5.46957 2 4.96086 2.21071 4.58579 2.58579C4.21071 2.96086 4 3.46957 4 4V11.035C4.53944 11.1122 5.05321 11.315 5.5 11.627V4C5.5 3.86739 5.55268 3.74021 5.64645 3.64645C5.74021 3.55268 5.86739 3.5 6 3.5H12V8C12 8.53043 12.2107 9.03914 12.5858 9.41421C12.9609 9.78929 13.4696 10 14 10H18.5V20ZM13.5 4.621L17.378 8.5H14C13.8674 8.5 13.7402 8.44732 13.6464 8.35355C13.5527 8.25979 13.5 8.13261 13.5 8V4.621ZM6 14.5C6 15.163 5.73661 15.7989 5.26777 16.2678C4.79893 16.7366 4.16304 17 3.5 17C2.83696 17 2.20107 16.7366 1.73223 16.2678C1.26339 15.7989 1 15.163 1 14.5C1 13.837 1.26339 13.2011 1.73223 12.7322C2.20107 12.2634 2.83696 12 3.5 12C4.16304 12 4.79893 12.2634 5.26777 12.7322C5.73661 13.2011 6 13.837 6 14.5ZM4.5 14.5C4.5 14.2348 4.39464 13.9804 4.20711 13.7929C4.01957 13.6054 3.76522 13.5 3.5 13.5C3.23478 13.5 2.98043 13.6054 2.79289 13.7929C2.60536 13.9804 2.5 14.2348 2.5 14.5C2.5 14.7652 2.60536 15.0196 2.79289 15.2071C2.98043 15.3946 3.23478 15.5 3.5 15.5C3.76522 15.5 4.01957 15.3946 4.20711 15.2071C4.39464 15.0196 4.5 14.7652 4.5 14.5ZM12 20.5C12 21.163 11.7366 21.7989 11.2678 22.2678C10.7989 22.7366 10.163 23 9.5 23C8.83696 23 8.20107 22.7366 7.73223 22.2678C7.26339 21.7989 7 21.163 7 20.5C7 19.837 7.26339 19.2011 7.73223 18.7322C8.20107 18.2634 8.83696 18 9.5 18C10.163 18 10.7989 18.2634 11.2678 18.7322C11.7366 19.2011 12 19.837 12 20.5ZM10.5 20.5C10.5 20.2348 10.3946 19.9804 10.2071 19.7929C10.0196 19.6054 9.76522 19.5 9.5 19.5C9.23478 19.5 8.98043 19.6054 8.79289 19.7929C8.60536 19.9804 8.5 20.2348 8.5 20.5C8.5 20.7652 8.60536 21.0196 8.79289 21.2071C8.98043 21.3946 9.23478 21.5 9.5 21.5C9.76522 21.5 10.0196 21.3946 10.2071 21.2071C10.3946 21.0196 10.5 20.7652 10.5 20.5ZM10.78 13.22C10.9205 13.3606 10.9993 13.5512 10.9993 13.75C10.9993 13.9488 10.9205 14.1394 10.78 14.28L3.28 21.78C3.13783 21.9125 2.94978 21.9846 2.75548 21.9812C2.56118 21.9777 2.37579 21.899 2.23838 21.7616C2.10097 21.6242 2.02225 21.4388 2.01883 21.2445C2.0154 21.0502 2.08752 20.8622 2.22 20.72L9.72 13.22C9.86063 13.0795 10.0512 13.0007 10.25 13.0007C10.4488 13.0007 10.6394 13.0795 10.78 13.22Z" fill="#0B162B"/>
</svg>
    