<svg width="24" height="24" viewBox="0 0 24 24" fill="none" xmlns="http://www.w3.org/2000/svg">
    <g clip-path="url(#clip0)">
        <path d="M10 8V14L14.7 16.9L15.5 15.7L11.5 13.3V8H10Z" fill="#0C5BF0" />
        <path d="M17.92 12C18.0707 12.9939 18.0043 14.0087 17.7252 14.9745C17.4461 15.9403 16.961 16.8341 16.3033 17.5945C15.6456 18.3548 14.831 18.9635 13.9155 19.3788C12.9999 19.7941 12.0053 20.006 11 20C7.1 20 4 16.9 4 13C4 9.1 7.1 6 11 6C11.7 6 12.37 6.1 13 6.29V4.23C12.36 4.08 11.69 4 11 4C6 4 2 8 2 13C2 18 6 22 11 22C12.2677 22.0053 13.5221 21.7416 14.6803 21.2263C15.8386 20.711 16.8743 19.9559 17.7192 19.0108C18.5641 18.0657 19.199 16.9522 19.5818 15.7437C19.9646 14.5352 20.0867 13.2592 19.94 12H17.92V12Z" fill="#0C5BF0" />
        <path d="M18.3334 3.60931V9.99998H19.6667V3.60931L22.5287 6.47131L23.4714 5.52865L19 1.05731L14.5287 5.52865L15.4714 6.47131L18.3334 3.60931Z" fill="#0C5BF0" />
    </g>
    <defs>
        <clipPath id="clip0">
            <rect width="24" height="24" fill="white" />
        </clipPath>
    </defs>
</svg>
    