<svg width="18" height="18" viewBox="0 0 18 18" fill="none" xmlns="http://www.w3.org/2000/svg">
    <path d="M11 16.5V9.75L16.735 4C16.8202 3.91476 16.8876 3.81336 16.9331 3.70174C16.9786 3.59012 17.0013 3.47053 17 3.35V2.5C17 2.36739 16.9473 2.24021 16.8536 2.14645C16.7598 2.05268 16.6326 2 16.5 2H1.5C1.36739 2 1.24021 2.05268 1.14645 2.14645C1.05268 2.24021 1 2.36739 1 2.5V3.335C1.00009 3.45309 1.02356 3.57 1.06904 3.67898C1.11452 3.78797 1.18112 3.88687 1.265 3.97L7 9.79V14.89L11 16.5Z" fill="#0C5BF0" />
    <path d="M16.74 2H1.24002C1.17458 2.00505 1.11348 2.03465 1.06897 2.08288C1.02445 2.1311 0.999821 2.19437 1.00002 2.26V3.12C0.999415 3.20815 1.01634 3.29553 1.04982 3.37708C1.0833 3.45862 1.13265 3.5327 1.19502 3.595L7.19502 9.595V14.595L10.82 16.4V9.585L16.82 3.585C16.9348 3.46118 16.999 3.29884 17 3.13V2.26C17 2.19104 16.9726 2.12491 16.9239 2.07615C16.8751 2.02739 16.809 2 16.74 2Z" fill="#0C5BF0" />
</svg>
    