<svg width="16" height="16" viewBox="0 0 16 16" fill="none" xmlns="http://www.w3.org/2000/svg">
    <g clip-path="url(#clip0)">
        <path fill-rule="evenodd" clip-rule="evenodd" d="M1.75 1C1.28587 1 0.840753 1.18437 0.512565 1.51256C0.184376 1.84075 1.53305e-06 2.28587 1.53305e-06 2.75V6.75C1.53305e-06 7.122 0.116002 7.467 0.314002 7.75C0.109158 8.04319 -0.000472851 8.39234 1.53305e-06 8.75V12.75C1.53305e-06 13.716 0.784002 14.5 1.75 14.5H14.25C14.7141 14.5 15.1593 14.3156 15.4874 13.9874C15.8156 13.6592 16 13.2141 16 12.75V8.75C16 8.378 15.884 8.033 15.686 7.75C15.884 7.467 16 7.122 16 6.75V2.75C16 2.28587 15.8156 1.84075 15.4874 1.51256C15.1593 1.18437 14.7141 1 14.25 1H1.75ZM1.75 8.5C1.6837 8.5 1.62011 8.52634 1.57322 8.57322C1.52634 8.62011 1.5 8.6837 1.5 8.75V12.75C1.5 12.888 1.612 13 1.75 13H14.25C14.3163 13 14.3799 12.9737 14.4268 12.9268C14.4737 12.8799 14.5 12.8163 14.5 12.75V8.75C14.5 8.6837 14.4737 8.62011 14.4268 8.57322C14.3799 8.52634 14.3163 8.5 14.25 8.5H1.75ZM1.5 2.75C1.5 2.6837 1.52634 2.62011 1.57322 2.57322C1.62011 2.52634 1.6837 2.5 1.75 2.5H14.25C14.3163 2.5 14.3799 2.52634 14.4268 2.57322C14.4737 2.62011 14.5 2.6837 14.5 2.75V6.75C14.5 6.8163 14.4737 6.87989 14.4268 6.92678C14.3799 6.97366 14.3163 7 14.25 7H1.75C1.6837 7 1.62011 6.97366 1.57322 6.92678C1.52634 6.87989 1.5 6.8163 1.5 6.75V2.75ZM7 4.75C7 4.55109 7.07902 4.36032 7.21967 4.21967C7.36032 4.07902 7.55109 4 7.75 4H12.25C12.4489 4 12.6397 4.07902 12.7803 4.21967C12.921 4.36032 13 4.55109 13 4.75C13 4.94891 12.921 5.13968 12.7803 5.28033C12.6397 5.42098 12.4489 5.5 12.25 5.5H7.75C7.55109 5.5 7.36032 5.42098 7.21967 5.28033C7.07902 5.13968 7 4.94891 7 4.75ZM7.75 10C7.55109 10 7.36032 10.079 7.21967 10.2197C7.07902 10.3603 7 10.5511 7 10.75C7 10.9489 7.07902 11.1397 7.21967 11.2803C7.36032 11.421 7.55109 11.5 7.75 11.5H12.25C12.4489 11.5 12.6397 11.421 12.7803 11.2803C12.921 11.1397 13 10.9489 13 10.75C13 10.5511 12.921 10.3603 12.7803 10.2197C12.6397 10.079 12.4489 10 12.25 10H7.75ZM3 4.75C3 4.55109 3.07902 4.36032 3.21967 4.21967C3.36032 4.07902 3.55109 4 3.75 4H4.25C4.44891 4 4.63968 4.07902 4.78033 4.21967C4.92098 4.36032 5 4.55109 5 4.75C5 4.94891 4.92098 5.13968 4.78033 5.28033C4.63968 5.42098 4.44891 5.5 4.25 5.5H3.75C3.55109 5.5 3.36032 5.42098 3.21967 5.28033C3.07902 5.13968 3 4.94891 3 4.75ZM3.75 10C3.55109 10 3.36032 10.079 3.21967 10.2197C3.07902 10.3603 3 10.5511 3 10.75C3 10.9489 3.07902 11.1397 3.21967 11.2803C3.36032 11.421 3.55109 11.5 3.75 11.5H4.25C4.44891 11.5 4.63968 11.421 4.78033 11.2803C4.92098 11.1397 5 10.9489 5 10.75C5 10.5511 4.92098 10.3603 4.78033 10.2197C4.63968 10.079 4.44891 10 4.25 10H3.75Z" fill="#33539E" />
    </g>
    <defs>
        <clipPath id="clip0">
            <rect width="16" height="16" fill="white" />
        </clipPath>
    </defs>
</svg>
    