<svg width="69" height="69" viewBox="0 0 69 69" fill="none" xmlns="http://www.w3.org/2000/svg">
    <path d="M58.1581 34.938H34.062V10.8419C34.062 10.5454 33.8194 10.3028 33.5229 10.3028H31.771C28.2353 10.2992 24.7337 10.9938 21.4671 12.3467C18.2005 13.6996 15.2331 15.6842 12.7354 18.1866C10.2761 20.6382 8.31709 23.5447 6.96738 26.7442C5.56582 30.0662 4.85156 33.5903 4.85156 37.229C4.85156 40.8676 5.56582 44.385 6.96738 47.707C8.32178 50.9077 10.2624 53.7917 12.7354 56.2646C15.2083 58.7376 18.0855 60.6782 21.293 62.0326C24.6091 63.4395 28.1755 64.1614 31.7777 64.1552C35.3134 64.1588 38.815 63.4642 42.0816 62.1113C45.3483 60.7584 48.3156 58.7738 50.8134 56.2714C53.2863 53.7984 55.227 50.9212 56.5814 47.7137C57.9882 44.3976 58.7102 40.8312 58.7039 37.229V35.477C58.6972 35.1805 58.4546 34.938 58.1581 34.938Z" fill="#0B162B" />
    <path d="M64.0715 32.334L63.8963 30.4338C63.3236 24.2345 60.5744 18.3857 56.1406 13.9721C51.7109 9.54619 45.8737 6.80754 39.6385 6.22985L37.7316 6.05466C37.4149 6.02771 37.1454 6.27028 37.1454 6.58698V32.4418C37.1454 32.7383 37.3879 32.9808 37.6844 32.9808L63.5325 32.9135C63.8492 32.9067 64.0985 32.6439 64.0715 32.334Z" fill="#F98DB4" />
</svg>
    