<svg width="19" height="19" viewBox="0 0 19 19" fill="none" xmlns="http://www.w3.org/2000/svg">
    <path d="M16.8285 8.67817C17.2037 9.169 17.2037 9.83163 16.8285 10.3217C15.6465 11.8646 12.8107 15.0416 9.5 15.0416C6.18925 15.0416 3.3535 11.8646 2.17154 10.3217C1.98897 10.0866 1.88986 9.79752 1.88986 9.49992C1.88986 9.20232 1.98897 8.91319 2.17154 8.67817C3.3535 7.13521 6.18925 3.95825 9.5 3.95825C12.8107 3.95825 15.6465 7.13521 16.8285 8.67817V8.67817Z" stroke="#A5A5A5" stroke-linecap="round" stroke-linejoin="round" />
    <path d="M9.5 11.875C10.8117 11.875 11.875 10.8117 11.875 9.5C11.875 8.18832 10.8117 7.125 9.5 7.125C8.18832 7.125 7.125 8.18832 7.125 9.5C7.125 10.8117 8.18832 11.875 9.5 11.875Z" stroke="#A5A5A5" stroke-linecap="round" stroke-linejoin="round" />
</svg>
    