<svg width="20" height="21" viewBox="0 0 20 21" fill="none" xmlns="http://www.w3.org/2000/svg">
    <path d="M12.46 6.66957C12.8879 6.66957 13.2983 6.84335 13.6008 7.15267C13.9034 7.462 14.0734 7.88154 14.0734 8.31899L12.46 6.66957ZM17.3 8.31899C17.3002 9.09189 17.1234 9.85409 16.7836 10.5445C16.4438 11.2349 15.9505 11.8344 15.3433 12.2948C14.7361 12.7553 14.0319 13.0639 13.287 13.1959C12.5422 13.328 11.7774 13.2798 11.054 13.0553L9.23336 14.9167H7.62003V16.5661H6.0067V18.2155H3.5867C3.37275 18.2155 3.16758 18.1287 3.0163 17.974C2.86502 17.8193 2.78003 17.6096 2.78003 17.3908V15.2581C2.78007 15.0394 2.86509 14.8297 3.01638 14.6751L7.82734 9.75647C7.62604 9.07609 7.57047 8.35936 7.66443 7.65506C7.75839 6.95075 7.99966 6.27541 8.37184 5.675C8.74401 5.07459 9.23833 4.56321 9.82118 4.17565C10.404 3.7881 11.0617 3.53348 11.7494 3.42911C12.4372 3.32475 13.1388 3.3731 13.8066 3.57086C14.4744 3.76863 15.0928 4.11118 15.6195 4.57518C16.1462 5.03919 16.5689 5.61376 16.8589 6.2598C17.1489 6.90584 17.2994 7.60817 17.3 8.31899V8.31899Z" stroke="#A5A5A5" stroke-width="1.25" stroke-linecap="round" stroke-linejoin="round" />
</svg>
    